<svg width="500" height="500" viewBox="0 0 680 680" xmlns="http://www.w3.org/2000/svg" role="img">
<title>Caretta</title>
<defs>
  <linearGradient id="water" x1="0" y1="0" x2="1" y2="1">
    <stop offset="0%" stop-color="#D2F1EA"/>
    <stop offset="45%" stop-color="#A6E1DC"/>
    <stop offset="100%" stop-color="#8FD2E2"/>
  </linearGradient>
  <linearGradient id="shell" x1="0" y1="0" x2="0" y2="1">
    <stop offset="0%" stop-color="#3FC79E"/>
    <stop offset="100%" stop-color="#1D9E75"/>
  </linearGradient>
  <clipPath id="bc"><rect x="40" y="40" width="600" height="600" rx="130"/></clipPath>
</defs>
<g clip-path="url(#bc)">
  <rect x="40" y="40" width="600" height="600" fill="url(#water)"/>
  <circle cx="160" cy="150" r="160" fill="#FFFFFF" opacity="0.18"/>
  <circle cx="620" cy="630" r="190" fill="#8FD2E2" opacity="0.35"/>
  <path d="M40 420 q80-40 160 0 t160 0 t160 0 t120 0 V640 H40 Z" fill="#7FC9DC" opacity="0.3"/>
</g>
<rect x="40" y="40" width="600" height="600" rx="130" fill="none" stroke="#0F766E" stroke-width="8" opacity="0.9"/>
<g transform="translate(340,360)">
  <g transform="translate(-115,-80) rotate(-26)"><ellipse cx="0" cy="0" rx="52" ry="30" fill="#34B894" stroke="#0F6E56" stroke-width="5"/></g>
  <g transform="translate(115,-80) rotate(26)"><ellipse cx="0" cy="0" rx="52" ry="30" fill="#34B894" stroke="#0F6E56" stroke-width="5"/></g>
  <g transform="translate(-105,95) rotate(28)"><ellipse cx="0" cy="0" rx="40" ry="23" fill="#34B894" stroke="#0F6E56" stroke-width="5"/></g>
  <g transform="translate(105,95) rotate(-28)"><ellipse cx="0" cy="0" rx="40" ry="23" fill="#34B894" stroke="#0F6E56" stroke-width="5"/></g>
  <path d="M0 128 l-22 46 h44 z" fill="#2AA17D" stroke="#0F6E56" stroke-width="5" stroke-linejoin="round"/>
  <ellipse cx="0" cy="-132" rx="44" ry="52" fill="#2AA17D" stroke="#0F6E56" stroke-width="5"/>
  <circle cx="-15" cy="-145" r="9" fill="#0B3B30"/>
  <circle cx="15" cy="-145" r="9" fill="#0B3B30"/>
  <circle cx="-12" cy="-148" r="3.5" fill="#FFFFFF"/>
  <circle cx="18" cy="-148" r="3.5" fill="#FFFFFF"/>
  <ellipse cx="0" cy="5" rx="118" ry="138" fill="url(#shell)" stroke="#0F6E56" stroke-width="8"/>
  <path d="M0 -100 L0 110 M-95 -30 L95 -30 M-85 55 L85 55" stroke="#0F6E56" stroke-width="6" opacity="0.35" fill="none" stroke-linecap="round"/>
  <path d="M0 -55 l50 37 -19 59 h-62 l-19 -59 z" fill="#0F6E56" opacity="0.12"/>
  <ellipse cx="-40" cy="-35" rx="26" ry="34" fill="#FFFFFF" opacity="0.2"/>
</g>
</svg>
